<svg xmlns="http://www.w3.org/2000/svg" width="547.499" height="547.919" viewBox="0 0 547.499 547.919">
  <g id="Group_42" data-name="Group 42" transform="translate(-237 -159)">
    <ellipse id="Ellipse_63" data-name="Ellipse 63" cx="125.5" cy="126" rx="125.5" ry="126" transform="translate(254.499 449)" fill="#f3f3f3"/>
    <circle id="Ellipse_64" data-name="Ellipse 64" cx="51.256" cy="51.256" r="51.256" transform="translate(631.943 264.815)" fill="#e00"/>
    <ellipse id="Ellipse_65" data-name="Ellipse 65" cx="125.5" cy="126" rx="125.5" ry="126" transform="translate(532.499 350)" fill="#f3f3f3"/>
    <path id="Path_1353" data-name="Path 1353" d="M1695.133,1909.551l213.76,25.151s-33.248,46.823-99.279,48.617S1702.5,1930.6,1695.133,1909.551Z" transform="translate(-1151.203 -1382.068)"/>
    <path id="Path_1354" data-name="Path 1354" d="M1910.442,1385.8l-8.165,6.408h0a.909.909,0,0,0-.156,1.276.894.894,0,0,0,.241.214.914.914,0,0,0,.307.118.842.842,0,1,0,.308-1.656l-.142.762.4-.662a.776.776,0,0,0-.261-.1l-.142.762.4-.662-.405.665.686-.369a.78.78,0,0,0-.28-.3l-.405.665.686-.369-.683.367h.775a.773.773,0,0,0-.093-.367l-.683.367h0l.7.333a.77.77,0,0,0,.076-.333h-.776l.7.333-.7-.332.477.609a.772.772,0,0,0,.221-.277l-.7-.332.477.609h0l8.165-6.408a.842.842,0,0,0-1.04-1.325Z" transform="translate(-1314.469 -968.424)"/>
    <ellipse id="Ellipse_66" data-name="Ellipse 66" cx="125.5" cy="126" rx="125.5" ry="126" transform="translate(289.499 159)" fill="#f3f3f3"/>
    <path id="Path_1355" data-name="Path 1355" d="M722.441,1032.178l192.311-53.439s-23.961,68.466-102.627,78.007C812.124,1056.746,760.616,1063.7,722.441,1032.178Z" transform="translate(-383.258 -647.188)"/>
    <path id="Path_1356" data-name="Path 1356" d="M1237.052,1148.451l-58.572-5.093h.016l-72.5,32.91,58.572,5.093Z" transform="translate(-686.079 -777.155)"/>
    <path id="Path_1357" data-name="Path 1357" d="M1572.921,2346.835h.421a47.992,47.992,0,1,1,14.057,33.936,47.841,47.841,0,0,1-14.057-33.936h-.842A48.835,48.835,0,1,0,1621.335,2298a48.835,48.835,0,0,0-48.835,48.835Z" transform="translate(-1054.383 -1688.75)" fill="#e00"/>
    <ellipse id="Ellipse_67" data-name="Ellipse 67" cx="39.5" cy="40" rx="39.5" ry="40" transform="translate(251.499 379)" fill="#e00"/>
    <path id="Path_1358" data-name="Path 1358" d="M2064.421,413.733h.421a23.891,23.891,0,1,1,7,16.894,23.815,23.815,0,0,1-7-16.894H2064A24.733,24.733,0,1,0,2088.733,389,24.733,24.733,0,0,0,2064,413.733Z" transform="translate(-1442.425 -181.586)" fill="#e00"/>
    <circle id="Ellipse_68" data-name="Ellipse 68" cx="17.5" cy="17.5" r="17.5" transform="translate(626.499 627)" fill="#e00"/>
    <path id="Path_1359" data-name="Path 1359" d="M237.421,998.787h.421a16.945,16.945,0,1,1,4.963,11.982,16.89,16.89,0,0,1-4.963-11.982H237A17.787,17.787,0,1,0,254.787,981,17.787,17.787,0,0,0,237,998.787Z" transform="translate(0 -648.972)" fill="#e00"/>
    <path id="Path_1360" data-name="Path 1360" d="M492.482,2509.042l55.031-11.645,10.963,27.7,71.625,12.254S557.055,2572.285,492.482,2509.042Z" transform="translate(-201.704 -1846.175)"/>
    <path id="Path_1361" data-name="Path 1361" d="M577.857,1861.5s-.752,5.895-12.119,11.368-13.261,9.051-13.261,9.051-14.945,6.525-24.628,9.472-17.05,21.891-22.944,27.575-8.63,10.314-7.367,15.156-5.052,8.841-2.947,13.261,8,2.315,6.946,6.315-9.262,5.684-9.051,10.525,8,4.841,5.894,11.788-5.262,8-.211,14.524-1.263,11.577,2.736,17.682,9.869,7.09,18.1,7.157c9,.073,20.208,7.157,20.208,7.157s-9.578-21.786,14.84-26.207c0,0,2,2,8.1,1.368s111.984-56.554,111.984-56.554-.4-9.6-5.262-15.857c-8.333-10.724-3.566-14.192-11.788-20-5.081-3.588-19.576-5.052-25.049-12.209a39.067,39.067,0,0,1-6.914-14.776Z" transform="translate(-201.703 -1344.128)" fill="#fff"/>
    <path id="Path_1362" data-name="Path 1362" d="M1944.316,1227.006s-14.1,16.419-15.577,24.207-4.841,13.051-2.736,22.944,7.157,26.733,15.156,29.048l-2.1,6.072s8.208,6.347,14.523,8.452,31.651-7.434,31.441-25.747c0,0-1.527-7.878,1.21-12.088,0,0,17.949-14.366,7.5-22.488,0,0,2.371-23.034-1-30.4C1992.729,1227.006,1976.311,1197.958,1944.316,1227.006Z" transform="translate(-1332.943 -833.003)" fill="#fab6b6"/>
    <path id="Path_1363" data-name="Path 1363" d="M1776.736,1495.658s-16.012,6.231-23.169,8.547-12.615,9.345-15.141,23.027-7.615,93.435,15.787,100.406c29.68,8.841,80.2-2.526,80.2-2.526l26.813,4.08s7.993-2.88,13.6-5.554c3.61-1.721,16-6.736,18.1-12.419s-.421-62.307-1.052-70.937.421-20.629-11.367-27.575-37.368-18.208-37.368-18.208-2.77,5.118-7.611,6.592a27,27,0,0,0-.481,11.561s-2.533,22.158-25.477,22.579c0,0-15.255-1.642-17.781-10.645,0,0-2.861-1.125-6.26-5.442C1780.421,1512.652,1776.736,1495.658,1776.736,1495.658Z" transform="translate(-1183.578 -1054.383)" fill="#be0000"/>
    <path id="Path_1364" data-name="Path 1364" d="M2203.73,1743.643c-1.4,6.479-2,19.256-4.759,31.058-4.156,17.789-23.488,23.055-23.488,23.055s10.731,1.855,31.453-8.38c0,0,0-37.1-1.818-54.824C2205.119,1734.552,2204.306,1740.974,2203.73,1743.643Z" transform="translate(-1530.442 -1243.905)" fill="#8f0000"/>
    <path id="Path_1365" data-name="Path 1365" d="M815.343,298.216s4.21,2.1,10.525-2.526,11.367-8,14.314-13.472,16-35.784,5.052-50.1S805.66,216.964,795.557,247.7s-8,33.679-17.261,43.362a34.813,34.813,0,0,1-10.1,3.368c-5.473.842,37.468,31.153,37.468,31.153l7.157-10.525A20.523,20.523,0,0,1,815.343,298.216Z" transform="translate(-418.998 -50.176)" fill="#fddbdb"/>
    <path id="Path_1366" data-name="Path 1366" d="M778.712,657.516c1.574-4.866,1-2.581,2.118-6.352-.632-6.882-8.151-7.556-13.922-8.243-12.243-1.457-16.3-2.682-16.3-2.682s-14.945-80.409-50.94-73.463c-22.87,4.413-28.627-25.259-28.627-25.259s-28.838-4.42-41.889,38.521,4.21,86.3,10.525,94.723,35.57,17.7,55.992,22.313c26.1,5.894,29.89-8.841,29.89-8.841s1.684-11.109,1.684-16.208c3.157.842,6.736,1.474,9.893.842,4-1.263,32.206.421,43.69-5.509C772.831,660.329,775.042,668.861,778.712,657.516Z" transform="translate(-305.852 -301.897)" fill="#4cb6d6"/>
    <path id="Path_1367" data-name="Path 1367" d="M989.632,1087.195c.322.4.5.59.5.59S989.954,1087.588,989.632,1087.195Z" transform="translate(-594.206 -732.814)"/>
    <path id="Path_1368" data-name="Path 1368" d="M918.915,378.775c-17.682-8.42-31.574-25.259-38.731-60.623s7.578-68.2-8-94.723-35.363-13.472-35.363-13.472c-34.942,1.263-30.311,50.519-36.626,62.307-2.675,4.993-6.736,13.893,0,13.472s10.525-5.894,10.525-5.894c-6.644,69.175,22.267,107.148,26.445,112.235-2.7-3.4-15.7-22.229-20.972-76.03-5.894-60.2,34.942-87.987,34.942-87.987s12.209-7.578,16.84,3.789,0,27.785-4.212,36.387-8.417,9.5-15.153,14.973-10.525,2.526-10.525,2.526c-4.311,9.662-6.736,13.051,5.052,38.31,9.074,19.445,4.178,54.857,1.442,70.128a42.5,42.5,0,0,0,6.508,1.813c12.5-7.428,30.781-14.686,30.781-14.686,0-13.893-8.42-40.836-8.42-40.836C888.6,375.828,918.915,378.775,918.915,378.775Z" transform="translate(-441.74 -37.696)"/>
    <path id="Path_1369" data-name="Path 1369" d="M1062.989,423.021a7.027,7.027,0,0,0-2.085,1.235,6.74,6.74,0,0,0-2.411,4.6c-.175,1.764-.137,3.156-.288,4.175a3.475,3.475,0,0,1-.385,1.252,2.218,2.218,0,0,1-.886.841,3.276,3.276,0,0,1-1.6.408,3.539,3.539,0,0,1-1.261-.234,4.423,4.423,0,0,1-1.553-1,2.9,2.9,0,0,1-.568-.818,2.489,2.489,0,0,1-.221-1.039,2.892,2.892,0,0,1,.02-.338.421.421,0,1,0-.836-.1,3.7,3.7,0,0,0-.026.437,3.326,3.326,0,0,0,.3,1.387,3.969,3.969,0,0,0,1.184,1.464,5.453,5.453,0,0,0,1.4.792,4.386,4.386,0,0,0,1.561.289,4.117,4.117,0,0,0,2.009-.515,3.068,3.068,0,0,0,1.2-1.155,3.822,3.822,0,0,0,.415-1.134,13.119,13.119,0,0,0,.205-2.052c.036-.764.065-1.618.161-2.579a6.007,6.007,0,0,1,.78-2.461,6.243,6.243,0,0,1,2.018-2.078,6.515,6.515,0,0,1,.815-.448c.1-.046.183-.079.236-.1l.06-.023.013,0h0l-.043-.128.043.128h0l-.043-.128.043.128a.421.421,0,1,0-.266-.8Z" transform="translate(-642.57 -208.429)" fill="#fab6b6"/>
    <path id="Path_1370" data-name="Path 1370" d="M1034.732,455.273a1.956,1.956,0,0,0-.106.648,1.894,1.894,0,0,0,.084.563,1.805,1.805,0,0,0,.624.886,3.142,3.142,0,0,0,1.4.571.421.421,0,1,0,.151-.829,2.813,2.813,0,0,1-.79-.251,1.15,1.15,0,0,1-.515-.47.982.982,0,0,1-.112-.47,1.238,1.238,0,0,1,.029-.267c.007-.033.014-.057.019-.072l0-.014h0l-.23-.083.229.086v0l-.23-.083.229.086a.421.421,0,0,0-.788-.3Z" transform="translate(-629.729 -233.693)" fill="#fab6b6"/>
    <path id="Path_1371" data-name="Path 1371" d="M1115.534,420.933a11.561,11.561,0,0,1,1.228.167,10.346,10.346,0,0,1,1.2.295,6.026,6.026,0,0,1,1.181.5,2.7,2.7,0,0,1,1.039.982.506.506,0,0,1-.834.565l-.024-.03a1.691,1.691,0,0,0-.7-.453,4.832,4.832,0,0,0-.975-.243,9,9,0,0,0-1.055-.093,10.082,10.082,0,0,0-1.052.017h0a.857.857,0,1,1-.132-1.708A.907.907,0,0,1,1115.534,420.933Z" transform="translate(-692.877 -206.795)"/>
    <path id="Path_1372" data-name="Path 1372" d="M1036.3,363.512c0-.027-.021-.09-.035-.145s-.032-.113-.05-.171q-.05-.175-.118-.352c-.079-.237-.189-.469-.289-.7a10,10,0,0,0-.764-1.341,11.14,11.14,0,0,0-2.1-2.314c-.2-.166-.421-.316-.631-.477-.107-.077-.209-.163-.321-.233l-.34-.207c-.229-.135-.449-.285-.685-.409l-.72-.353c-.121-.057-.239-.121-.362-.174l-.377-.143-.755-.289c-.513-.168-1.04-.3-1.561-.452l-.046-.013a.448.448,0,0,1,.222-.868c.557.122,1.121.224,1.678.365l.826.252.414.127c.136.048.268.107.4.16l.805.33c.266.117.519.264.779.4l.388.2c.128.07.247.156.372.233.245.161.5.313.736.483a12.618,12.618,0,0,1,2.549,2.46,11.675,11.675,0,0,1,.992,1.5c.139.269.284.533.4.817.063.138.123.281.177.429.028.073.057.145.082.225s.051.148.08.257l.01.039a.9.9,0,1,1-1.746.464A.807.807,0,0,1,1036.3,363.512Z" transform="translate(-623.577 -154.63)"/>
    <path id="Path_1373" data-name="Path 1373" d="M1096.566,444.148a8.334,8.334,0,0,0,.868,1.074,9.632,9.632,0,0,0,2.477,1.916,7.806,7.806,0,0,0,1.035.466,3.5,3.5,0,0,0,1.149.225,1.932,1.932,0,0,0,.717-.129,1.656,1.656,0,0,0,.633-.447.421.421,0,0,0-.631-.558.807.807,0,0,1-.313.223,1.1,1.1,0,0,1-.406.07,2.69,2.69,0,0,1-.868-.176,7.038,7.038,0,0,1-.922-.416,9.059,9.059,0,0,1-2.842-2.436c-.065-.086-.114-.154-.146-.2l-.035-.051-.008-.012v0l-.061.039.061-.039h0l-.061.039.061-.039a.421.421,0,0,0-.709.455Z" transform="translate(-678.579 -224.614)"/>
    <path id="Path_1374" data-name="Path 1374" d="M1015.421,380.842v-.181l0,.181h0v-.181l0,.181a3.154,3.154,0,0,1,1.135.336,8.3,8.3,0,0,1,2.758,2.252,13.67,13.67,0,0,0,1.952,1.945,6.509,6.509,0,0,0,1.353.834,3.834,3.834,0,0,0,1.558.356,3.158,3.158,0,0,0,1.316-.287.421.421,0,0,0-.348-.767,2.311,2.311,0,0,1-.968.212,3,3,0,0,1-1.216-.283,6.611,6.611,0,0,1-1.716-1.187,15,15,0,0,1-1.289-1.367,9.018,9.018,0,0,0-3.122-2.507,3.74,3.74,0,0,0-1.409-.379.421.421,0,0,0,0,.842Z" transform="translate(-614.235 -174.48)"/>
    <path id="Path_1375" data-name="Path 1375" d="M1040,403.08a1.683,1.683,0,0,0,3.351.254,8.339,8.339,0,0,1-2.723-1.531A1.673,1.673,0,0,0,1040,403.08Z" transform="translate(-633.972 -191.694)"/>
    <path id="Path_1376" data-name="Path 1376" d="M1106,456.08a1.683,1.683,0,0,0,3.351.254,8.34,8.34,0,0,1-2.723-1.531A1.673,1.673,0,0,0,1106,456.08Z" transform="translate(-686.079 -233.538)"/>
    <path id="Path_1377" data-name="Path 1377" d="M997.5,486.5a18.838,18.838,0,0,0,2.947,6.1c1.815,2.359,6.525,6.315,8.63,2.526S997.5,486.5,997.5,486.5Z" transform="translate(-600.418 -258.563)" fill="#f56d6d"/>
    <path id="Path_1378" data-name="Path 1378" d="M794.062,798.751s4.6,40.066,10.722,46.993c9.683,10.946,29.567,14.576,33.258,14.945,0,0-18.7-1.955-23.365-2.947-9.893-2.1-17.471-4.21-17.471-4.21C797,847.007,794.062,798.751,794.062,798.751Z" transform="translate(-439.803 -505.086)" fill="#037a9e"/>
    <path id="Path_1379" data-name="Path 1379" d="M1159.781,1165.658l-15.2-8.658h-.056s-3.425,0-7.692.184a85.426,85.426,0,0,0-12.771,1.294,27.881,27.881,0,0,1-5.954.665,21.686,21.686,0,0,1-3.722-.3c-.432-.076-.764-.152-.987-.208-.111-.028-.2-.052-.251-.068l-.062-.018-.015,0h0l-.13.4a18.3,18.3,0,0,0,5.171.625,28.314,28.314,0,0,0,6.044-.674,85.086,85.086,0,0,1,12.7-1.285c2.129-.092,4.048-.138,5.434-.161.693-.012,1.254-.017,1.64-.02s.6,0,.6,0v-.211l-.1.183,15.156,8.63Z" transform="translate(-691.553 -787.925)"/>
    <path id="Path_1380" data-name="Path 1380" d="M1124.955,1056.25c-12.554-1.38-11.218-5.131-12.627-8.25-3.121,1.421-12.076,5.6-15.91,7.5l.544,4.71a19.052,19.052,0,0,0,2.526,9.262s9.683,1.052,25.26-2.316c4.843-1.047,13.068,2.763,13.068,2.763s4.686,2.59,15.677-2.588c-9.856-.7-4.71-12.339-4.71-12.339C1141.718,1053.723,1135.52,1057.411,1124.955,1056.25Z" transform="translate(-678.514 -701.869)" fill="#037a9e"/>
    <path id="Path_1381" data-name="Path 1381" d="M998.448,892.848s0,.03.009.092c.04.436.2,2.383.2,5.291,0,7.145-.984,20.086-7.116,30.631a.316.316,0,0,0,.546.317c6.224-10.718,7.2-23.747,7.2-30.949,0-3.35-.213-5.439-.214-5.447a.316.316,0,1,0-.628.064Z" transform="translate(-595.681 -579.101)"/>
    <path id="Path_1382" data-name="Path 1382" d="M934,499s2.736,12.84,12.63,17.471c0,0-4.707,9.4-3.023,16.983a13.54,13.54,0,0,1-6.749.084A21.315,21.315,0,0,0,940.315,519C939.387,511.391,934.631,505.946,934,499Z" transform="translate(-550.285 -268.431)" fill="#f56d6d"/>
    <path id="Path_1383" data-name="Path 1383" d="M781.853,520.131s-4.7,7.492.238,12.813c0,0-3.54,5.052-5.894,5.052,0,0-4.013-5.366-2.093-11.557A9.065,9.065,0,0,1,781.853,520.131Z" transform="translate(-423.635 -285.114)" fill="#e00"/>
    <path id="Path_1384" data-name="Path 1384" d="M813.21,574.162s9.683,6.1,12.268,21.246c0,0,.152,2.119-3.848,1.7,0,0-4.42-13.893-12.63-20.629C809,576.478,811.1,572.268,813.21,574.162Z" transform="translate(-451.597 -327.385)" fill="#be0000"/>
    <path id="Path_1385" data-name="Path 1385" d="M800.041,587l-2.388,2.38s6.586,10.253,11.229,19.512a12.886,12.886,0,0,0,3.789-1.263S809.3,594.788,800.041,587Z" transform="translate(-442.638 -337.908)" fill="#be0000"/>
    <path id="Path_1386" data-name="Path 1386" d="M785.368,598,782,600.1s2.387,13.437,11.227,19.12l3.3-1.649S792.8,609.952,785.368,598Z" transform="translate(-430.28 -346.592)" fill="#8f0000"/>
    <path id="Path_1387" data-name="Path 1387" d="M984.235,658.36s-2.736-3.789-9.683,1.894-7,12.1-4.42,13.051c2,.737,4.526.526,9.367-3.052S986.656,661.412,984.235,658.36Z" transform="translate(-577.575 -393.27)" fill="#be0000"/>
    <path id="Path_1388" data-name="Path 1388" d="M998.746,677.13a4.641,4.641,0,0,1,.833,5.75c-5.04,7.987-10.958,8.642-10.958,8.642a3.307,3.307,0,0,1-2.9-2.078" transform="translate(-591.118 -409.066)" fill="#be0000"/>
    <path id="Path_1389" data-name="Path 1389" d="M999.5,704.123l1.894,1.684s8.209-2.1,11.156-9.683l-1.439-3.033S1010.235,700.334,999.5,704.123Z" transform="translate(-601.997 -421.667)" fill="#8f0000"/>
    <path id="Path_1390" data-name="Path 1390" d="M1027.008,639.433a8.39,8.39,0,0,0,3.682-4.13c1.474-3.157,3.322,7.357,1.766,9.888a12.081,12.081,0,0,0-1.135-1.468C1031.321,643.3,1031.5,639.586,1027.008,639.433Z" transform="translate(-623.715 -375.58)" fill="#e00"/>
    <path id="Path_1391" data-name="Path 1391" d="M1943.635,1175.115s22.313-10.946,23.786-13.472,2.736-4.631,0-8.42,3.578-8.42-7.157-8.42c0,0,.421-9.472-6.1-11.367s-11.156.842-16.208,0-12.63,2.736-14.524,7.788-9.683,3.157-14.1,5.894-3.157,13.261-7.367,17.471-5.473-1.473-3.578-3.578c0,0-8.209,3.158-5.473,14.1s10.525,10.1,14.1,8.42,5.683-14.314,11.788-10.735S1931.216,1184.377,1943.635,1175.115Z" transform="translate(-1306.904 -768.783)" fill="#be0000"/>
    <path id="Path_1392" data-name="Path 1392" d="M2027.575,1431.19c.384.024.727.054,1.085.09s.707.075,1.059.118q1.055.131,2.1.306a42.17,42.17,0,0,1,4.145.909c.688.193,1.347.4,2.01.608s1.325.423,1.985.64c1.321.441,2.63.888,3.937,1.4a.316.316,0,0,1-.2.6l-.008,0c-1.319-.351-2.673-.649-4.019-.933-.675-.14-1.35-.277-2.027-.408s-1.358-.26-2.019-.37a40.278,40.278,0,0,0-4.035-.429q-1.014-.056-2.028-.07c-.338,0-.675-.005-1.011,0s-.68.011-.987.027h-.006a1.243,1.243,0,0,1-.123-2.482A1.258,1.258,0,0,1,2027.575,1431.19Z" transform="translate(-1412.626 -1004.398)"/>
    <path id="Path_1393" data-name="Path 1393" d="M1946.5,1416.741c-.842-.457-1.7-.91-2.552-1.354s-1.715-.879-2.579-1.293l-.649-.3-.325-.147-.316-.129a9.386,9.386,0,0,0-1.314-.4,10.744,10.744,0,0,0-2.773-.256h-.021a.316.316,0,0,1-.064-.627,11.484,11.484,0,0,1,3.013-.073,10.477,10.477,0,0,1,1.506.276c.507.135.957.282,1.43.434.933.3,1.854.628,2.771.96s1.829.67,2.745,1.021a1.044,1.044,0,1,1-.748,1.951,1.088,1.088,0,0,1-.119-.054Z" transform="translate(-1341.085 -989.321)"/>
    <path id="Path_1394" data-name="Path 1394" d="M1950.913,1435.092a2.006,2.006,0,1,0,3.1,1.681c0-.5.13-.608-.174-.959A12.044,12.044,0,0,0,1950.913,1435.092Z" transform="translate(-1352.421 -1007.48)"/>
    <path id="Path_1395" data-name="Path 1395" d="M2049.817,1458.039a2.006,2.006,0,1,0,3.1,1.681c0-.5.13-.608-.175-.959A12.027,12.027,0,0,0,2049.817,1458.039Z" transform="translate(-1430.506 -1025.597)"/>
    <path id="Path_1396" data-name="Path 1396" d="M1972.257,1451.465l.017,0-.017,0,.017,0-.017,0c0,.011.018.191.018.507a13.215,13.215,0,0,1-2.471,7.417c-1.034,1.478-1.913,2.563-2.549,3.457a8.729,8.729,0,0,0-.764,1.235,2.673,2.673,0,0,0-.3,1.161,2.039,2.039,0,0,0,.24.95,3.681,3.681,0,0,0,.685.894,6.477,6.477,0,0,0,1.733,1.208,10.623,10.623,0,0,0,2.579.845,10.21,10.21,0,0,0,1.221.174.421.421,0,1,0,.053-.84h-.006a10.623,10.623,0,0,1-1.93-.355,7.015,7.015,0,0,1-3.055-1.627,2.875,2.875,0,0,1-.532-.685,1.194,1.194,0,0,1-.146-.563,1.853,1.853,0,0,1,.218-.8,12.073,12.073,0,0,1,1.2-1.8c.558-.743,1.256-1.644,2.044-2.77a14.052,14.052,0,0,0,2.623-7.9c0-.37-.022-.582-.023-.595a.421.421,0,1,0-.837.088Z" transform="translate(-1365.203 -1020.04)" fill="#f56d6d"/>
    <path id="Path_1397" data-name="Path 1397" d="M2002.687,1534.271a2.45,2.45,0,0,0,.475.231,3.4,3.4,0,0,0,1.193.214,3.775,3.775,0,0,0,1.7-.419.421.421,0,1,0-.376-.753,2.932,2.932,0,0,1-1.324.33,2.564,2.564,0,0,1-.9-.16,2.066,2.066,0,0,1-.239-.107l-.056-.031-.01-.006h0l-.137.21.139-.208,0,0-.137.21.139-.208a.421.421,0,0,0-.467.7Z" transform="translate(-1393.87 -1085.174)" fill="#f56d6d"/>
    <path id="Path_1398" data-name="Path 1398" d="M1981.26,1557.6l-.262-.192.162.287a.337.337,0,0,0,.1-.094l-.262-.192.162.287-.057-.1.051.1.006,0-.057-.1.051.1-.017-.035.016.035h0l-.017-.035.016.035a.278.278,0,0,1,.042-.014,3.327,3.327,0,0,1,.786-.064,43.255,43.255,0,0,1,7.28.986,21.341,21.341,0,0,0,3.891.334,20.715,20.715,0,0,0,3.566-.288,7.489,7.489,0,0,0,2.749-.952.421.421,0,1,0-.467-.7,6.75,6.75,0,0,1-2.43.823,19.9,19.9,0,0,1-3.418.274,20.517,20.517,0,0,1-3.732-.319,43.78,43.78,0,0,0-7.439-1,4.08,4.08,0,0,0-.991.089,1,1,0,0,0-.243.093.513.513,0,0,0-.165.142.421.421,0,1,0,.679.5Z" transform="translate(-1376.501 -1103.555)" fill="#f56d6d"/>
    <path id="Path_1399" data-name="Path 1399" d="M1980.6,1567.188a7.005,7.005,0,0,0,1.7,1.381,9.619,9.619,0,0,0,5.036,1.349,14.156,14.156,0,0,0,5.326-1.133.421.421,0,1,0-.316-.78,13.327,13.327,0,0,1-5.01,1.071,8.775,8.775,0,0,1-4.6-1.227,7.255,7.255,0,0,1-1.129-.836c-.124-.113-.215-.206-.274-.269-.03-.031-.051-.055-.064-.07l-.014-.016,0,0-.091.076.092-.075h0l-.091.076.092-.075a.421.421,0,1,0-.652.533Z" transform="translate(-1376.501 -1111.227)" fill="#f56d6d"/>
    <path id="Path_1400" data-name="Path 1400" d="M2040.1,1558.5s-19.783,23.242-39.567,16.614c0,0,.586,3.348,4.839,6.191a29.949,29.949,0,0,0,12.942,4.454s-.105-6.63,5.157-10.63S2039.254,1560.6,2040.1,1558.5Z" transform="translate(-1392.314 -1104.911)" fill="#f56d6d"/>
    <path id="Path_1401" data-name="Path 1401" d="M2314.771,1733.389s.013.193.035.561c.155,2.573.776,13.675.776,26.411,0,1.516-.009,3.055-.028,4.606q-.007.535-.007,1.1c0,8.4,1.042,22.141,1.042,22.145l.016.215.207.063s1.764.537,3.792,1.088c1.014.275,2.094.554,3.058.771a15.9,15.9,0,0,0,2.371.4.316.316,0,0,0,.03-.63,15.431,15.431,0,0,1-2.263-.386c-1.424-.32-3.127-.783-4.472-1.164-.673-.191-1.256-.362-1.671-.484l-.487-.145-.174-.053-.092.3.315-.024s-.016-.214-.045-.606c-.2-2.741-1-14.181-1-21.492q0-.566.007-1.1c.019-1.553.028-3.1.028-4.614,0-14.578-.812-27.008-.812-27.013a.316.316,0,0,0-.63.041Z" transform="translate(-1640.409 -1242.721)"/>
    <path id="Path_1402" data-name="Path 1402" d="M1820.472,2112.889l30.723,2.018,10.633-4.417,86.2,5.534.08,6.1-41.124,17.728-85.672-9.052S1815.508,2123.965,1820.472,2112.889Z" transform="translate(-1248.574 -1540.71)" fill="#fff"/>
    <path id="Path_1403" data-name="Path 1403" d="M2178.1,1991.894s4.42-2.1,6.736,1.684,2.1,5.473,2.1,5.473,2.315-.211,5.262-2.947c2.152-2,4.4-4.125,5.448-5.126a2.1,2.1,0,0,1,1.485-.578c2.057.04,5.451,1.37,3.824,4.693a6.284,6.284,0,0,1,5.872,1.433c1.773,1.7,1.8,3.8-.632,6.02a7.148,7.148,0,0,1,4.415,2.065c1.2,1.393,2.348,5.38-3.57,8.561,0,0,4.8,1.248,3.365,5.035-.785,2.074-3.309,2.817-7.36,4.476-2.37.97-9.433,3.28-9.433,3.28a4.116,4.116,0,0,1,1.747-4.674l-1.957,3.549-1.954-.416a14.976,14.976,0,0,1-8.14-4.786,15.781,15.781,0,0,0-3.3-2.947c-3.28-2.06-3.28-5.849-3.28-7.322s1.473-9.472.632-12.209S2177.7,1992,2178.1,1991.894Z" transform="translate(-1532.427 -1445.898)" fill="#fab6b6"/>
    <path id="Path_1404" data-name="Path 1404" d="M2100.19,2039.453l25.851-24.33s2.315-1.729,3.368,1.241a31.085,31.085,0,0,0-6.525,5.285c-2.385,2.806-1.605,4.1-1.605,4.1l-16.522,14.583Z" transform="translate(-1470.997 -1465.023)"/>
    <path id="Path_1405" data-name="Path 1405" d="M1893.15,1950.519a13.3,13.3,0,0,0-3.464,2.076,15.524,15.524,0,0,0-5.146,7.673.316.316,0,0,0,.6.183,14.886,14.886,0,0,1,4.938-7.365,14.344,14.344,0,0,1,2.319-1.53c.3-.157.543-.269.71-.341.083-.036.148-.062.191-.079l.047-.018.011,0h0a.316.316,0,1,0-.213-.594Z" transform="translate(-1300.729 -1414.397)"/>
    <path id="Path_1406" data-name="Path 1406" d="M1975,1691.347a98.9,98.9,0,0,0,5.834,22.814c4.829,12.719,13.488,28.092,28.822,38.669a.316.316,0,0,0,.359-.52c-15.188-10.473-23.79-25.727-28.591-38.373a107.279,107.279,0,0,1-4.7-16.075c-.425-2.042-.7-3.689-.867-4.824-.084-.567-.142-1.007-.178-1.3-.018-.149-.031-.262-.039-.337s-.012-.112-.012-.113a.316.316,0,1,0-.628.063Z" transform="translate(-1372.159 -1209.52)"/>
    <path id="Path_1407" data-name="Path 1407" d="M1803.027,1519.444s-13.275-9.484-24.852-8.431a23.523,23.523,0,0,0-17.023,9.571s3.358-8.74,8.712-11.553c5.03-2.643,26.514-9.531,26.514-9.531S1800.162,1514.494,1803.027,1519.444Z" transform="translate(-1203.324 -1058.331)" fill="#8f0000"/>
    <path id="Path_1408" data-name="Path 1408" d="M1914.55,1750s4.506,33.258,8.927,39.363,11.549,11.142,11.549,11.142l-18.285-7.985S1913.287,1755.683,1914.55,1750Z" transform="translate(-1324.214 -1256.102)" fill="#8f0000"/>
    <path id="Path_1409" data-name="Path 1409" d="M1969.279,1804.227l-.116,0a83.838,83.838,0,0,1-22.645-4.364c-6.191-2.1-14.027-5.464-20.31-8.3-3.142-1.42-5.9-2.708-7.866-3.642-.984-.467-1.772-.844-2.314-1.106l-.621-.3-.215-.1-.139.283h.316c0-1.963-.172-5.662-.428-10.12-.77-13.37-2.309-33.529-2.309-33.53a.316.316,0,1,0-.629.048l.031.4c.15,1.983.826,10.962,1.465,20.357.319,4.7.629,9.5.859,13.582s.38,7.448.38,9.258v.2l.177.087s4.74,2.318,11.033,5.161,14.139,6.214,20.368,8.326a83.706,83.706,0,0,0,22.954,4.4.316.316,0,1,0,.01-.631Z" transform="translate(-1322.42 -1250.373)"/>
    <path id="Path_1410" data-name="Path 1410" d="M2206.141,2003.173s3.561,2.41-1.51,7.015c-3.84,3.487-14.3,8.522-14.934,13.995,0,0-2.611-3.365,1.178-6.522,0,0-4.21.842-5.683,2.526a6.6,6.6,0,0,0-1.162,6.03,6.864,6.864,0,0,1-2.511-5.993,56.356,56.356,0,0,0,3.872-4.381,15.576,15.576,0,0,0,3.3.45C2191,2016.081,2205.088,2008.856,2206.141,2003.173Z" transform="translate(-1535.199 -1455.983)" fill="#f56d6d"/>
    <path id="Path_1411" data-name="Path 1411" d="M2254.6,2047.7s3.5.53,3.074,1.793-4.54,3.467-7.073,4.943c-8.42,4.9-12.63,8.209-13.682,10.314s-.631-2.947,1.473-4.841a67.285,67.285,0,0,1,10.837-8.025A21.207,21.207,0,0,0,2254.6,2047.7Z" transform="translate(-1578.508 -1491.138)" fill="#f56d6d"/>
    <path id="Path_1412" data-name="Path 1412" d="M2264.6,2099.129s1.71.608,1.847.947c-.351,2.52-14.992,8.134-14.992,8.134s.494-1.96-3.51-2.021C2254.771,2104.869,2264.6,2099.129,2264.6,2099.129Z" transform="translate(-1587.652 -1531.74)" fill="#f56d6d"/>
    <path id="Path_1413" data-name="Path 1413" d="M2219.3,2043.313a.662.662,0,0,0,.281.281,1.671,1.671,0,0,0,.839.18,7.441,7.441,0,0,0,2.431-.55,33.47,33.47,0,0,0,4.728-2.264c3.466-1.937,7.288-3.954,10.26-6.047a19.2,19.2,0,0,0,3.68-3.213,7.34,7.34,0,0,0,1.083-1.682,4.292,4.292,0,0,0,.4-1.756,3.747,3.747,0,0,0-.027-.447.316.316,0,1,0-.627.075,3.162,3.162,0,0,1,.022.372,3.657,3.657,0,0,1-.344,1.5,8.725,8.725,0,0,1-2.11,2.7,35.49,35.49,0,0,1-5.718,4.042c-2.223,1.329-4.646,2.633-6.927,3.907a32.919,32.919,0,0,1-4.636,2.222,6.863,6.863,0,0,1-2.215.511,1.062,1.062,0,0,1-.523-.1.169.169,0,0,1-.041-.03l-.1.091.124-.056a.155.155,0,0,0-.02-.035l-.1.091.124-.056a.316.316,0,1,0-.575.26Z" transform="translate(-1565.011 -1475.218)" fill="#f56d6d"/>
    <path id="Path_1414" data-name="Path 1414" d="M2236.163,2081.908c0,.01,0,.025,0,.045a.74.74,0,0,0,.048.256.972.972,0,0,0,.471.512,2.416,2.416,0,0,0,1.15.228,11.985,11.985,0,0,0,3.392-.668,54.834,54.834,0,0,0,6.51-2.616c4.444-2.058,7.435-3.667,9.345-5.22a8.284,8.284,0,0,0,2.089-2.354,5.15,5.15,0,0,0,.653-2.561.316.316,0,1,0-.632,0,4.516,4.516,0,0,1-.573,2.255,10.161,10.161,0,0,1-3.523,3.311,63.878,63.878,0,0,1-7.626,4,54.261,54.261,0,0,1-6.432,2.586,11.439,11.439,0,0,1-3.2.639,2.367,2.367,0,0,1-.669-.08.57.57,0,0,1-.336-.2.2.2,0,0,1-.029-.062l0-.017v0h-.188l.187.019v-.019h-.188l.187.019a.316.316,0,1,0-.628-.064Z" transform="translate(-1578.347 -1508.123)" fill="#f56d6d"/>
    <path id="Path_1415" data-name="Path 1415" d="M2261.8,2114.648a4.976,4.976,0,0,0-1.289.945,4.541,4.541,0,0,0-.886,1.238,4.138,4.138,0,0,0-.406,1.808,5.2,5.2,0,0,0,.223,1.469l.09.305.3-.093s4.068-1.233,7.036-2.385c2.241-.871,4.761-1.64,6.748-2.643a8.689,8.689,0,0,0,2.49-1.75,4.013,4.013,0,0,0,.748-1.127,3.346,3.346,0,0,0,.272-1.335,4.275,4.275,0,0,0-.225-1.328.316.316,0,0,0-.6.2,3.669,3.669,0,0,1,.194,1.133,2.721,2.721,0,0,1-.221,1.086,4.108,4.108,0,0,1-1.352,1.6,15.908,15.908,0,0,1-3.74,1.907c-1.46.57-3.052,1.1-4.542,1.678-1.465.569-3.215,1.162-4.6,1.612-.691.225-1.29.415-1.715.548l-.5.155-.179.055.092.3.3-.089a4.571,4.571,0,0,1-.2-1.291,3.5,3.5,0,0,1,.344-1.535,4.132,4.132,0,0,1,1.176-1.432,4.575,4.575,0,0,1,.5-.345c.063-.037.114-.065.148-.082l.037-.019.009,0h0l-.052-.11.051.11h0l-.052-.11.051.11a.316.316,0,1,0-.266-.573Z" transform="translate(-1596.553 -1539.955)" fill="#f56d6d"/>
    <path id="Path_1416" data-name="Path 1416" d="M1819.89,2121.15l1.172.311c-.481,1.053-.273,4.333,2.681,7.415,5.115,5.336,21.511,8.346,37.509,6.662s37.321,5.091,44.341,12.649l-84.756-8.86S1814.522,2130.89,1819.89,2121.15Z" transform="translate(-1247.991 -1549.126)" fill="#dedede"/>
    <path id="Path_1417" data-name="Path 1417" d="M2223.977,2153.665a9.156,9.156,0,0,0,3.368-8.841c-1.053-5.684-7.746-7.875-10.511-1.309-2.736,6.5-.113,12.036,3.775,17.1l41.123-17.728v-6.1Z" transform="translate(-1562.197 -1561.465)"/>
    <path id="Path_1418" data-name="Path 1418" d="M1827.825,2121.086l86.769,5.7a.316.316,0,0,0,.041-.63l-86.769-5.7a.316.316,0,1,0-.041.63" transform="translate(-1255.73 -1548.577)" fill="#dedede"/>
    <path id="Path_1419" data-name="Path 1419" d="M870.163,1601.791s-11.714,5.144-10.84,27.68c0,0-6.1,0-3.789,9.262s10.1,15.787,10.1,15.787l-1.895,33.89s6.315,12.63,20,12.209,18.524-10.1,18.524-10.1l1.4-10.4s15.019-15.5,15.23-32.124c.116-9.2.285-17.023-.144-23.757-.485-7.616-2.675-17.315-9-20.117C900.413,1599.988,888.034,1592.794,870.163,1601.791Z" transform="translate(-487.921 -1135.677)" fill="#f56d6d"/>
    <path id="Path_1420" data-name="Path 1420" d="M937.43,1581.73a.285.285,0,0,0-.06-.538c-10.053-2.2-15-12.669-27.152-14.362-15.289-2.129-22.312,1.684-27.154,10.314a20.357,20.357,0,0,0-10.1,14.1,82.271,82.271,0,0,0-1.61,13.71s7.44.081,9.509,13.035c0,0,4.064-10.37,4.275-17.526s3.939-12.17,5.463-14.744c.822-1.39-.226-3.356-2.242-5.612.591.48,1.105.927,1.558,1.353a6.858,6.858,0,0,0,5.77,1.8c2-.316,4.747-.764,8.115-1.341,7.367-1.263,12.137,1.749,18.208,2.391A31.206,31.206,0,0,0,937.43,1581.73Z" transform="translate(-500.821 -1111.031)"/>
    <path id="Path_1421" data-name="Path 1421" d="M1083.414,1777.164c.331-.081.609-.133.91-.188s.59-.1.886-.139q.886-.121,1.776-.176a18.009,18.009,0,0,1,3.571.113,11.789,11.789,0,0,1,1.761.376,8.445,8.445,0,0,1,1.677.677,6.831,6.831,0,0,1,1.473,1.044,6.5,6.5,0,0,1,1.107,1.4.211.211,0,0,1-.346.239l0-.006a5.987,5.987,0,0,0-1.177-1.12,6.083,6.083,0,0,0-1.424-.733,7.446,7.446,0,0,0-1.556-.385,10.57,10.57,0,0,0-1.61-.111,16.436,16.436,0,0,0-3.234.356q-.8.163-1.586.388c-.262.074-.521.154-.777.238s-.522.177-.734.262a1.175,1.175,0,1,1-.726-2.23Z" transform="translate(-667.532 -1277.119)"/>
    <path id="Path_1422" data-name="Path 1422" d="M975.929,1778.181c-.3-.076-.648-.151-.979-.219s-.672-.134-1.011-.193q-1.015-.181-2.042-.312a34.434,34.434,0,0,0-4.123-.29,20.938,20.938,0,0,0-4.1.34,11.749,11.749,0,0,0-1.976.547,8.6,8.6,0,0,0-1.825.929l0,0a.211.211,0,0,1-.258-.332,9.165,9.165,0,0,1,1.8-1.227,12.554,12.554,0,0,1,2.015-.844,22.135,22.135,0,0,1,4.256-.9,36.225,36.225,0,0,1,4.335-.243q1.086,0,2.172.055c.362.017.725.041,1.088.068s.718.059,1.112.106h0a1.282,1.282,0,1,1-.306,2.546A1.448,1.448,0,0,1,975.929,1778.181Z" transform="translate(-570.45 -1276.183)"/>
    <path id="Path_1423" data-name="Path 1423" d="M1083.848,1812.335a39.956,39.956,0,0,0,6.09.474,26.113,26.113,0,0,0,5.223-.477.421.421,0,0,0-.171-.824,25.255,25.255,0,0,1-5.052.459,40.133,40.133,0,0,1-4.2-.232c-.54-.058-.978-.116-1.279-.159-.151-.021-.268-.04-.346-.052l-.089-.014-.029,0a.421.421,0,1,0-.143.83Z" transform="translate(-668.315 -1304.656)"/>
    <path id="Path_1424" data-name="Path 1424" d="M967.776,1808.316a25.326,25.326,0,0,0,7.958,1.1,34.411,34.411,0,0,0,4.023-.238.421.421,0,0,0-.1-.836,33.707,33.707,0,0,1-3.925.233,28.941,28.941,0,0,1-5.643-.531c-.662-.132-1.173-.264-1.516-.363-.172-.049-.3-.09-.387-.117l-.1-.032-.022-.008,0,0h0a.421.421,0,0,0-.288.791Z" transform="translate(-576.732 -1301.497)"/>
    <path id="Path_1425" data-name="Path 1425" d="M1099.081,1815.026a2.525,2.525,0,1,0,4.906.066C1102.369,1815.154,1100.677,1815.048,1099.081,1815.026Z" transform="translate(-680.553 -1307.44)"/>
    <path id="Path_1426" data-name="Path 1426" d="M989.081,1814.026a2.525,2.525,0,1,0,4.906.066C992.369,1814.154,990.677,1814.047,989.081,1814.026Z" transform="translate(-593.707 -1306.65)"/>
    <path id="Path_1427" data-name="Path 1427" d="M1154.572,1141.723a37.209,37.209,0,0,0-10.014-6.3,40.521,40.521,0,0,0-12.241.706c-14.124,2.589-20.48,2.825-24.482,2.119a108.519,108.519,0,0,1-.835,16.1l34.263-5.273s9.416,2.825,12.712,3.767,4.708-.942,4.708-.942l-1.374-.71c.441.147,2.53-.15,2.315-1.263,2.1.21,1.684-.842,1.684-.842C1164.044,1149.511,1155.514,1142.664,1154.572,1141.723Z" transform="translate(-686.869 -770.754)" fill="#fddbdb"/>
    <path id="Path_1428" data-name="Path 1428" d="M1263.512,1168.041l-12.307-9.136-.1-.018a42.386,42.386,0,0,0-6.929-.4c-1.586,0-3.462.044-5.647.162a.421.421,0,0,0,.046.841c2.171-.117,4.031-.161,5.6-.161,2.355,0,4.055.1,5.164.2.554.049.96.1,1.226.135.133.018.231.033.294.044l.07.012.016,0h0l.078-.414-.251.338,12.229,9.079a.421.421,0,1,0,.5-.676Z" transform="translate(-790.4 -789.095)" fill="#f56d6d"/>
    <path id="Path_1429" data-name="Path 1429" d="M1258.43,1187.055l-14.374-6.566-9.984.238a.421.421,0,1,0,.02.842l9.79-.233,14.2,6.486a.421.421,0,0,0,.35-.766Z" transform="translate(-786.868 -806.47)" fill="#f56d6d"/>
    <path id="Path_1430" data-name="Path 1430" d="M1282.88,1153.7l-13.551-11.863-8.383-.479a.421.421,0,0,0-.048.841l8.095.462,13.333,11.673a.421.421,0,1,0,.555-.634Z" transform="translate(-808.058 -775.576)" fill="#f56d6d"/>
    <path id="Path_1431" data-name="Path 1431" d="M1068.04,1789.239a31.339,31.339,0,0,0-2.441,12.4,31.761,31.761,0,0,0,1.152,8.519.421.421,0,0,0,.811-.225,30.932,30.932,0,0,1-1.122-8.293,32.693,32.693,0,0,1,1.185-8.7c.3-1.064.592-1.9.812-2.477.11-.286.2-.506.265-.652.031-.073.056-.128.073-.165l.018-.04,0-.01v0a.421.421,0,1,0-.76-.363Z" transform="translate(-654.183 -1286.892)" fill="#be0000"/>
    <path id="Path_1432" data-name="Path 1432" d="M1036.331,1894.561l-.049.03c-.245.147-1.383.822-2.661,1.455a19.994,19.994,0,0,1-1.922.845,7.85,7.85,0,0,1-.847.264,2.866,2.866,0,0,1-.642.093,1.154,1.154,0,0,1-.135-.008h0a3.964,3.964,0,0,1-.671-.162,24.805,24.805,0,0,1-3.355-1.486c-.542-.278-1.023-.538-1.369-.727-.173-.095-.312-.172-.407-.226l-.109-.061-.037-.021a.421.421,0,1,0-.418.731s1.114.636,2.441,1.3c.664.332,1.382.672,2.048.944.333.136.654.256.951.35a4.806,4.806,0,0,0,.82.194h0a1.987,1.987,0,0,0,.236.014,3.767,3.767,0,0,0,.9-.131,11.969,11.969,0,0,0,1.813-.655,38.134,38.134,0,0,0,3.846-2.022.421.421,0,1,0-.438-.719Z" transform="translate(-620.945 -1370.184)" fill="#be0000"/>
    <path id="Path_1433" data-name="Path 1433" d="M1018.032,1865.521a2.347,2.347,0,0,0-.954.7,4.11,4.11,0,0,0-.869,2.767,7.92,7.92,0,0,0,.064.983.421.421,0,1,0,.835-.1,7.117,7.117,0,0,1-.058-.878,3.276,3.276,0,0,1,.666-2.219,1.821,1.821,0,0,1,.427-.37,1.226,1.226,0,0,1,.128-.069l.028-.012h0l-.077-.213.071.215.005,0-.077-.213.071.215a.421.421,0,1,0-.266-.8Z" transform="translate(-615.19 -1347.289)" fill="#be0000"/>
    <path id="Path_1434" data-name="Path 1434" d="M1010.449,1922.291h-.012c-.131.014-1.322.136-3.145.136a39.877,39.877,0,0,1-7.474-.694,26.814,26.814,0,0,1-8.681-3.175.421.421,0,1,0-.433.722,27.659,27.659,0,0,0,8.954,3.279,40.721,40.721,0,0,0,7.634.709,32.066,32.066,0,0,0,3.252-.143.421.421,0,0,0-.095-.837Z" transform="translate(-594.891 -1389.132)" fill="#be0000"/>
    <path id="Path_1435" data-name="Path 1435" d="M1007.629,1940.225a10.161,10.161,0,0,0,2.336,1.539,14.817,14.817,0,0,0,6.654,1.51,19.451,19.451,0,0,0,6.169-1.06.421.421,0,1,0-.266-.8,18.613,18.613,0,0,1-5.9,1.016,13.977,13.977,0,0,1-6.278-1.422,11.138,11.138,0,0,1-1.606-.971c-.179-.131-.312-.24-.4-.314-.044-.037-.076-.066-.1-.085l-.022-.02,0,0a.421.421,0,1,0-.583.607Z" transform="translate(-608.313 -1405.713)" fill="#be0000"/>
    <path id="Path_1436" data-name="Path 1436" d="M908.141,1898.441s-5.536-4.707-8.483,3.082a23.013,23.013,0,0,0-.361,14.8l-2.8-4.065L898.289,1881S903.363,1893.675,908.141,1898.441Z" transform="translate(-520.678 -1359.527)" fill="#be0000"/>
    <path id="Path_1437" data-name="Path 1437" d="M1015.6,1993.33s1.052,12.36-6.1,14.842c0,0,8.841-.254,14.735-9.727l1.474-10.946S1021.288,1992.424,1015.6,1993.33Z" transform="translate(-609.892 -1443.609)" fill="#be0000"/>
    <path id="Path_1438" data-name="Path 1438" d="M917.518,1913.552c.013.037,2.638,7.292,11.772,15.259a32.276,32.276,0,0,0,6.435,4.529,14.274,14.274,0,0,0,6.486,1.707,12.921,12.921,0,0,0,7.054-2.225.316.316,0,1,0-.34-.532,12.3,12.3,0,0,1-6.714,2.125,13.65,13.65,0,0,1-6.2-1.639,31.672,31.672,0,0,1-6.306-4.441,49.273,49.273,0,0,1-9.189-10.467,32.144,32.144,0,0,1-1.868-3.311c-.19-.395-.325-.7-.411-.909-.043-.1-.075-.182-.095-.235l-.022-.058-.005-.014v0a.316.316,0,0,0-.594.214Z" transform="translate(-537.258 -1384.893)"/>
    <path id="Path_1439" data-name="Path 1439" d="M897,2030s6.378,12.147,20.271,11.726,18.25-10.253,18.25-10.253l-2.945,41.889H898.743S897.631,2040.525,897,2030Z" transform="translate(-521.073 -1477.163)"/>
    <path id="Path_1440" data-name="Path 1440" d="M970.032,2327.145H829L833,2236H974.031Z" transform="translate(-467.387 -1639.801)" fill="#4cb6d6"/>
    <path id="Path_1441" data-name="Path 1441" d="M721.348,2502s2.576,1.162,10.76,1l-1.142,26.028s-20.865-1-25.135-2.752C705.831,2526.278,697.351,2505.368,721.348,2502Z" transform="translate(-368.996 -1849.809)" fill="#f56d6d"/>
    <path id="Path_1442" data-name="Path 1442" d="M759.366,1947.632c-.048.033-1.793,1.285-3.517,5.343s-3.433,10.92-3.433,22.192q0,.986.018,2.017c.106,6.084,1.242,14.627,2.883,24.034,4.925,28.216,14.412,64.183,14.413,64.188l.61-.161s-.066-.25-.189-.723c-.926-3.555-5.1-19.734-9.093-37.857-2-9.062-3.945-18.609-5.421-27.306a161.842,161.842,0,0,1-2.573-22.186q-.018-1.026-.018-2.006c0-11.208,1.7-17.985,3.383-21.945a17.282,17.282,0,0,1,2.3-4.034,7.8,7.8,0,0,1,.742-.818c.088-.082.155-.14.2-.176l.048-.038.01-.008h0l-.083-.116.082.117h0l-.083-.116.082.117-.363-.516Z" transform="translate(-406.923 -1412.133)"/>
    <path id="Path_1443" data-name="Path 1443" d="M1202.084,2044.3s.006.045.016.133a218.463,218.463,0,0,1,1.437,23.419c0,6.027-.377,12.1-1.5,16.664l.613.151c1.146-4.658,1.52-10.76,1.521-16.815a218.843,218.843,0,0,0-1.458-23.63Z" transform="translate(-761.899 -1488.388)"/>
    <path id="Path_1444" data-name="Path 1444" d="M833,2236s1.473,31.153,26.522,48.414,111.773,12.419,110.721,42.731H829Z" transform="translate(-467.387 -1639.801)" fill="#037a9e"/>
    <path id="Path_1445" data-name="Path 1445" d="M789.86,2635.446l-10.435-8.946,10.792.823Z" transform="translate(-428.247 -1948.102)"/>
    <path id="Path_1446" data-name="Path 1446" d="M720.924,2502s-10.022.9-10.812,8.959c-.525,5.353,7.706,11.766,20.886,9.9l-.527,9.771s-19.9-2.418-25.125-4.418C705.347,2526.207,696.678,2505.56,720.924,2502Z" transform="translate(-368.572 -1849.809)" fill="#be0000"/>
    <path id="Path_1447" data-name="Path 1447" d="M735.178,2216.37a27.1,27.1,0,0,1-5.267-3.907c-3.352-3.815-6.946-3.158-7.788-5.894s.631-8.209-2.736-13.472,1.684-5.683,1.684-14.1-4-8.63-2.736-13.893.473-17.69-3.157-26.1c0,0,3.368,19.365,1.053,24.838s-3.789,8.209-1.053,11.367,2.737,8,0,10.735-1.473,6.946.842,10.946.245,5.02-1.543,8.1c-.667,1.151,3.354,4.036,6.661,6.046,3.818,2.322,5.5,3.742,7.512,4.373A41.315,41.315,0,0,0,735.178,2216.37Z" transform="translate(-376.297 -1563.219)" fill="#dedede"/>
    <path id="Path_1448" data-name="Path 1448" d="M662.508,2437.713a18.276,18.276,0,0,0-2.7-2.415,14.627,14.627,0,0,0-2.861-1.664,8.817,8.817,0,0,0-3.448-.765,8.219,8.219,0,0,0-4.757,1.213,3.532,3.532,0,0,0-1.214,1.287.316.316,0,0,0,.575.262l-.155-.071.154.073v0l-.155-.071.154.073.012-.022a3.267,3.267,0,0,1,1.178-1.133,7.879,7.879,0,0,1,4.207-.977,8.19,8.19,0,0,1,3.2.715,15.3,15.3,0,0,1,3.812,2.447c.478.409.86.778,1.122,1.043.131.133.232.239.3.313l.076.083.019.021.005.006a.316.316,0,1,0,.475-.416Z" transform="translate(-324.091 -1795.23)"/>
    <path id="Path_1449" data-name="Path 1449" d="M980.644,673.645c1.23-2.037,3.792-5.466,7.763-6.934a.731.731,0,0,1,.921.992A15.562,15.562,0,0,1,986.3,672a11.324,11.324,0,0,1-4.656,2.931A.87.87,0,0,1,980.644,673.645Z" transform="translate(-587.008 -400.803)"/>
    <path id="Path_1450" data-name="Path 1450" d="M992.686,476.646a2.269,2.269,0,0,0,.527.767,4.518,4.518,0,0,0,.738.6c.128.092.265.175.4.255s.282.153.422.229.286.145.432.213.292.135.444.194.294.13.448.187l.458.169.961.349c.646.238,1.294.475,1.937.737a31.42,31.42,0,0,1,3.82,1.8,16.8,16.8,0,0,1,1.838,1.2,10.552,10.552,0,0,1,1.689,1.581,1.38,1.38,0,0,1-2.106,1.784l-.03-.036a13.22,13.22,0,0,0-2.715-2.445c-1.052-.747-2.192-1.436-3.358-2.1-.584-.331-1.173-.664-1.769-.988-.3-.166-.592-.317-.9-.492l-.466-.268c-.155-.089-.3-.193-.457-.289s-.3-.2-.442-.315-.29-.215-.428-.337-.276-.237-.4-.371a5.05,5.05,0,0,1-.378-.4,4.326,4.326,0,0,1-.619-.924,2.507,2.507,0,0,1-.2-.525,1.613,1.613,0,0,1-.055-.572.1.1,0,0,1,.2-.025Z" transform="translate(-596.447 -250.708)" fill="#e00"/>
    <path id="Path_1451" data-name="Path 1451" d="M808.076,586.1l.017-.034-.018.034h0l.017-.034-.018.034a16.818,16.818,0,0,1,4.445,4.072c2.519,3.053,5.658,8.154,8.153,16.369a.316.316,0,0,0,.6-.183c-2.537-8.351-5.746-13.548-8.331-16.66a17.145,17.145,0,0,0-4.58-4.157.316.316,0,1,0-.291.56Z" transform="translate(-450.733 -336.723)"/>
    <path id="Path_1452" data-name="Path 1452" d="M634.858,669s-10.367,56.834,9.209,91.145c0,0,5.473,13.051,26.943,13.893s56.488,12.737,54.413,17.74c-2.421,5.836-12.527,9.721-28.733,6.046-11.082-2.513-45.678-11.367-55.781-22.312S616.387,711.731,634.858,669Z" transform="translate(-307.082 -402.647)" fill="#037a9e"/>
    <path id="Path_1453" data-name="Path 1453" d="M782.551,1058.462a6.764,6.764,0,0,0-2.385.581,10.464,10.464,0,0,0-4.613,3.988.316.316,0,1,0,.525.35,9.83,9.83,0,0,1,4.333-3.756,7.221,7.221,0,0,1,1.556-.466c.19-.033.34-.05.441-.058l.113-.007h.031v0h0v0a.316.316,0,1,0,0-.631Z" transform="translate(-425.148 -710.129)"/>
    <path id="Path_1454" data-name="Path 1454" d="M790.5,791.85s.014.126.04.369c.393,3.642,3.537,33.513,3.536,55.588h.316l-.157-.274a.314.314,0,0,0-.1.085.321.321,0,0,0-.015.363.371.371,0,0,0,.116.117,1.249,1.249,0,0,0,.234.112c.19.074.518.183,1.12.353,1.8.51,6.065,1.568,16.2,3.762,1.081.234,2.589.442,4.413.66,6.378.759,16.619,1.619,25.331,3.821a37.869,37.869,0,0,1,11.225,4.443,12.615,12.615,0,0,1,3.466,3.213,7.593,7.593,0,0,1,1.415,3.991q.138,2.41.134,4.512c0,8.142-1.417,12.98-2.813,15.768a11.341,11.341,0,0,1-1.9,2.809,5.562,5.562,0,0,1-.609.554c-.072.055-.127.093-.162.116l-.038.024-.008,0h0l.089.156-.088-.157h0l.089.156-.088-.157a.316.316,0,1,0,.309.551c.051-.027,1.524-.878,2.973-3.776s2.879-7.836,2.879-16.051c0-1.417-.042-2.93-.135-4.548a8.369,8.369,0,0,0-1.933-4.855c-1.988-2.463-5.3-4.3-9.255-5.74-5.934-2.15-13.338-3.374-19.958-4.218-3.31-.421-6.423-.746-9.054-1.041s-4.782-.56-6.147-.856c-8.5-1.839-12.865-2.88-15.1-3.464-1.117-.292-1.7-.47-2-.574a2.054,2.054,0,0,1-.242-.1l0,0-.009.015.01-.015h0l-.009.015.01-.015-.114.178.157-.141a.22.22,0,0,0-.042-.038l-.114.178.157-.141-.217.195.262-.127a.291.291,0,0,0-.045-.067l-.217.195.262-.127-.276.135h.307a.308.308,0,0,0-.031-.135l-.276.135h0l.249.187a.314.314,0,0,0,.062-.187H794.4l.249.187-.25-.188.155.272a.312.312,0,0,0,.1-.084l-.25-.188.155.272.159-.091v-.183c0-23.6-3.58-56.021-3.58-56.026a.316.316,0,1,0-.628.069Z" transform="translate(-436.991 -499.361)"/>
    <path id="Path_1455" data-name="Path 1455" d="M1209.24,1009.54a4.489,4.489,0,0,0-1.263,1.331,19.248,19.248,0,0,0-2.465,5.591.316.316,0,1,0,.606.18,18.624,18.624,0,0,1,2.376-5.407,5.763,5.763,0,0,1,.79-.933,2.41,2.41,0,0,1,.209-.174l.047-.033.008-.005-.1-.182.1.184,0,0-.1-.182.1.184a.316.316,0,0,0-.307-.552Z" transform="translate(-764.635 -671.473)"/>
    <path id="Path_1456" data-name="Path 1456" d="M1106.011,1299.835l58.507,5.087v4.376L1106,1304.036Z" transform="translate(-686.079 -900.694)" fill="#e00"/>
    <path id="Path_1457" data-name="Path 1457" d="M1384,1200.657v4.376l72.534-33.524v-3.738Z" transform="translate(-905.562 -796.43)"/>
    <path id="Path_1458" data-name="Path 1458" d="M984.642,688.849a27.925,27.925,0,0,0,5.615-2.98,23.011,23.011,0,0,0,4.411-3.863,15.333,15.333,0,0,0,3.173-5.6.316.316,0,1,0-.6-.182,14.7,14.7,0,0,1-3.045,5.367,24.235,24.235,0,0,1-6.37,5.045c-.976.549-1.827.955-2.433,1.222-.3.134-.545.234-.71.3l-.188.073-.048.018-.015.005a.316.316,0,1,0,.215.594Z" transform="translate(-589.933 -408.173)"/>
    <path id="Path_1459" data-name="Path 1459" d="M995.736,230.274l.022.018c.231.189,2.25,1.858,4.607,4.164a41.818,41.818,0,0,1,6.631,7.963l.727-.424a43.336,43.336,0,0,0-7-8.365c-2.437-2.363-4.451-4-4.457-4.009l-.532.653Z" transform="translate(-599.026 -55.755)" fill="#fff"/>
    <path id="Path_1460" data-name="Path 1460" d="M733.56,560.125s-8.559-.648-11.119,2.043c0,0,5.623-5.258,11.033-7.524A13.461,13.461,0,0,0,733.56,560.125Z" transform="translate(-383.258 -312.363)"/>
    <path id="Path_1461" data-name="Path 1461" d="M710.685,1187.194v7.641l2.475,1.92,10.146-2.413A114.534,114.534,0,0,1,710.685,1187.194Z" transform="translate(-373.976 -811.764)" fill="#037a9e"/>
    <path id="Path_1462" data-name="Path 1462" d="M2149.883,1284.819a24.889,24.889,0,0,0,8.129,15.458c5.137,4.675,2.169,12.1,2.169,12.1s3.968-7.816,11.092-7.952c0,0,1.851-23.064-1.262-30.884C2170.011,1273.541,2162,1278.7,2149.883,1284.819Z" transform="translate(-1510.23 -879.935)" fill="#f56d6d"/>
    <path id="Path_1463" data-name="Path 1463" d="M2197.836,1427.191l.013-.021a31.877,31.877,0,0,1,3.267-4.035,17.206,17.206,0,0,1,2.979-2.526,8.079,8.079,0,0,1,1.577-.8,4.475,4.475,0,0,1,1.523-.293,3.158,3.158,0,0,1,1.325.283,3.927,3.927,0,0,1,1.266.953,5.326,5.326,0,0,1,1.084,1.73,5.061,5.061,0,0,1,.313,1.789,9.456,9.456,0,0,1-.837,3.542c-.479,1.158-1.076,2.258-1.531,3.227a20.794,20.794,0,0,1-1.554,2.628,26.686,26.686,0,0,1-4.088,4.779,12,12,0,0,1-2.4,1.71,5.146,5.146,0,0,1-2.332.649,3.272,3.272,0,0,1-1-.152l-.255.8a4.109,4.109,0,0,0,1.251.191,5.315,5.315,0,0,0,1.823-.347,10.6,10.6,0,0,0,3.057-1.867,25.084,25.084,0,0,0,3.905-4.257,24.543,24.543,0,0,0,2.354-3.779c.439-.936,1.047-2.052,1.547-3.263a10.261,10.261,0,0,0,.9-3.864,5.9,5.9,0,0,0-.367-2.085,6.163,6.163,0,0,0-1.25-2,4.771,4.771,0,0,0-1.539-1.152,4.011,4.011,0,0,0-1.674-.358,5.348,5.348,0,0,0-1.868.365,11.06,11.06,0,0,0-3.07,1.881,26.416,26.416,0,0,0-3.637,3.793c-.92,1.152-1.483,2.008-1.488,2.016l.7.462Z" transform="translate(-1547.533 -994.518)" fill="#f56d6d"/>
    <path id="Path_1464" data-name="Path 1464" d="M2303.771,1993.529l-5.287,2.246a.316.316,0,1,0,.247.581l5.287-2.245a.316.316,0,1,0-.247-.581" transform="translate(-1627.398 -1448.349)"/>
    <path id="Path_1465" data-name="Path 1465" d="M1954.116,1295.149h0a16.859,16.859,0,0,1-3.066,1.964,16.525,16.525,0,0,1-7.412,1.881,14.483,14.483,0,0,1-8.437-2.781c-3.215-2.249-6.028-3.123-8.469-3.122a10.752,10.752,0,0,0-6.513,2.3,23.591,23.591,0,0,0-4.116,4.171,6.012,6.012,0,0,1-2.445,1.737,8.374,8.374,0,0,1-3.1.59,6.64,6.64,0,0,1-3.555-.931,3.805,3.805,0,0,1-1.159-1.135,3.418,3.418,0,0,1-.526-1.582.316.316,0,0,0-.629.053,4.055,4.055,0,0,0,.624,1.87,4.792,4.792,0,0,0,2.214,1.78,7.833,7.833,0,0,0,3.032.577,9.006,9.006,0,0,0,3.338-.635,6.641,6.641,0,0,0,2.7-1.925,23.006,23.006,0,0,1,4-4.063,10.121,10.121,0,0,1,6.135-2.177c2.287,0,4.967.814,8.107,3.009a15.117,15.117,0,0,0,8.8,2.9,18.315,18.315,0,0,0,10.892-4,.316.316,0,1,0-.412-.478Z" transform="translate(-1316.644 -895.371)" fill="#fff"/>
    <rect id="Rectangle_158" data-name="Rectangle 158" width="141.252" height="3.835" transform="translate(361.613 687.344)" fill="#037a9e"/>
    <path id="Path_1466" data-name="Path 1466" d="M775.305,2640.492l-14.316-12.458,5.211.817,9.1,7.806" transform="translate(-413.692 -1949.314)" fill="#037a9e"/>
    <path id="Path_1467" data-name="Path 1467" d="M865.368,1756.549a24.387,24.387,0,0,0-2.267-3.966,13.462,13.462,0,0,0-2.527-2.76,6.745,6.745,0,0,0-1.556-.939,4.483,4.483,0,0,0-1.741-.367,4.233,4.233,0,0,0-1.827.424l.18.381-.121-.4a3.17,3.17,0,0,0-1.365.99,4.846,4.846,0,0,0-.88,1.587,7.994,7.994,0,0,0-.387,2.6,17.818,17.818,0,0,0,.852,5.036,32.065,32.065,0,0,0,5.936,10.7,36.61,36.61,0,0,0,4.014,4.255.421.421,0,1,0,.55-.637l0,0a36.2,36.2,0,0,1-4.006-4.268,31.114,31.114,0,0,1-5.683-10.291,17,17,0,0,1-.817-4.795,7.16,7.16,0,0,1,.342-2.327,3.657,3.657,0,0,1,1.1-1.685,2.4,2.4,0,0,1,.444-.294c.054-.027.1-.045.122-.055l.026-.01h0l-.065-.2.061.2h0l-.065-.2.061.2.03-.009.029-.013a3.385,3.385,0,0,1,1.466-.343,3.649,3.649,0,0,1,1.416.3,7.252,7.252,0,0,1,2.316,1.7,18.46,18.46,0,0,1,2.606,3.606c.314.553.561,1.036.728,1.38.083.172.147.309.19.4l.048.106.012.026,0,.008a.421.421,0,0,0,.773-.334Z" transform="translate(-486.238 -1254.931)" fill="#be0000"/>
    <path id="Path_1468" data-name="Path 1468" d="M1047,2037s-5.705,35.485-8.8,41.889h5.854Z" transform="translate(-632.551 -1482.689)"/>
    <path id="Path_1469" data-name="Path 1469" d="M562.024,2528.1a54.919,54.919,0,0,0-15.546-2.34c-7.7.168-19.587-2.262-21.423-10.783,0,0-4.151,8.677,5.95,14.3,8.5,4.732,12.858-.2,23.986,4.913l9.274,4.258A33.792,33.792,0,0,1,562.024,2528.1Z" transform="translate(-226.754 -1860.056)" fill="#dedede"/>
    <path id="Path_1470" data-name="Path 1470" d="M926.549,2689.9a124.943,124.943,0,0,1-45.3,8.441q-5.048,0-10-.393l-.066.839q4.98.393,10.064.4a125.774,125.774,0,0,0,45.6-8.5Z" transform="translate(-500.696 -1998.155)" fill="#e00"/>
    <path id="Path_1471" data-name="Path 1471" d="M436.089,1863.834A125.261,125.261,0,0,1,377.5,1634.171a.421.421,0,0,0-.462-.7,126.1,126.1,0,0,0,58.986,231.207.421.421,0,0,0,.066-.839Z" transform="translate(-65.529 -1164.044)" fill="#e00"/>
    <path id="Path_1472" data-name="Path 1472" d="M1897.353,1087.169A125.292,125.292,0,0,1,2084.705,1237.5a.421.421,0,0,0,.78.319,126.118,126.118,0,0,0-188.612-151.341.421.421,0,1,0,.48.692Z" transform="translate(-1310.334 -714.501)" fill="#e00"/>
    <path id="Path_1473" data-name="Path 1473" d="M1222.442,174.849a125.3,125.3,0,0,1,95.429,121.674,123.021,123.021,0,0,1-24.554,74.3.421.421,0,1,0,.675.5,123.869,123.869,0,0,0,24.72-74.8,126.139,126.139,0,0,0-96.071-122.492.421.421,0,1,0-.2.818Z" transform="translate(-777.757 -11.857)" fill="#e00"/>
    <path id="Path_1474" data-name="Path 1474" d="M713.679,2137.866s.028.174.077.495c.173,1.124.6,4.041.993,7.51a103.757,103.757,0,0,1,.733,10.811,21.818,21.818,0,0,1-.426,4.917,29.4,29.4,0,0,1-1.8,4.9,19.59,19.59,0,0,0-.757,1.928,6.215,6.215,0,0,0-.318,1.873,5.063,5.063,0,0,0,.36,1.856,8.628,8.628,0,0,0,1.2,2.058,8.918,8.918,0,0,1,2.085,5.365,6.6,6.6,0,0,1-.58,2.686,9,9,0,0,1-1.491,2.285,6.924,6.924,0,0,0-1.631,4.633,11.315,11.315,0,0,0,2.459,6.711,3.548,3.548,0,0,1,.774,2.2,4.987,4.987,0,0,1-.346,1.723,20.2,20.2,0,0,1-1.217,2.464,10.758,10.758,0,0,0-.541,1.127,3,3,0,0,0-.238,1.071,1.6,1.6,0,0,0,.1.571,1.53,1.53,0,0,0,.326.513,9.967,9.967,0,0,0,.972.865,71.518,71.518,0,0,0,6.214,4.222c2.441,1.515,4.961,2.97,6.694,3.859a.316.316,0,1,0,.288-.562c-1.952-1-4.955-2.752-7.683-4.482-1.364-.865-2.661-1.725-3.723-2.483-.531-.379-1-.732-1.4-1.046a9.525,9.525,0,0,1-.908-.806.9.9,0,0,1-.194-.3.964.964,0,0,1-.059-.347,2.988,2.988,0,0,1,.337-1.174c.316-.689.812-1.493,1.233-2.368a6.653,6.653,0,0,0,.772-2.843,4.183,4.183,0,0,0-.9-2.581,10.689,10.689,0,0,1-2.331-6.331,6.29,6.29,0,0,1,1.475-4.216,9.646,9.646,0,0,0,1.594-2.447,7.234,7.234,0,0,0,.633-2.941,9.545,9.545,0,0,0-2.213-5.747,8,8,0,0,1-1.111-1.905,4.43,4.43,0,0,1-.317-1.628,5.59,5.59,0,0,1,.289-1.684c.273-.871.717-1.812,1.193-2.921a25.413,25.413,0,0,0,1.372-3.941,22.345,22.345,0,0,0,.445-5.07,111.745,111.745,0,0,0-.906-12.335c-.452-3.768-.9-6.578-.905-6.581a.316.316,0,0,0-.623.1Z" transform="translate(-375.111 -1562.035)"/>
    <path id="Path_1475" data-name="Path 1475" d="M1351.3,1067.315c1.585.015,2.892.034,4.856.1,2.27.078,5.057-.163,5.913.054,1.432.363,1.827,1.48,2.82,2.24s8.788,4.092,9.342,5.248a39.608,39.608,0,0,1,1.419,4.425l8.849,9.866a9.531,9.531,0,0,1-8.124-.027c-4.215-2.085-13.909-9.286-17.251-10.133s-2.273.948-2.273.948,2.3.913,3.782,1.615c2.512,1.189,4.37,2.315,3.885,4.225s-5.773-.617-5.773-.617-7.16-1.84-9.631-2.1a46.258,46.258,0,0,1-7.467-1.518c-6.466-2.057-3.55-11.531-1.549-13.094a7.3,7.3,0,0,1,2.853-1.781A70.846,70.846,0,0,0,1351.3,1067.315Z" transform="translate(-868.993 -716.686)" fill="#fddbdb"/>
    <path id="Path_1476" data-name="Path 1476" d="M1468.684,1087.649c.4.324.97.722,1.622,1.161.975.657,2.14,1.4,3.2,2.082s2.028,1.3,2.586,1.7a5.231,5.231,0,0,1,.736.694c.419.457.868,1.021,1.209,1.467.17.223.314.418.415.556l.117.162.041.057.014.019,8.806,9.786a.421.421,0,0,0,.626-.563l-8.789-9.767-.313.282.343-.243s-.427-.6-.973-1.289c-.273-.343-.576-.708-.876-1.035a5.935,5.935,0,0,0-.87-.812c-.393-.278-.951-.644-1.6-1.061-.968-.625-2.128-1.36-3.191-2.053s-2.028-1.349-2.584-1.794a.421.421,0,0,0-.526.657Z" transform="translate(-972.295 -732.581)" fill="#f56d6d"/>
    <path id="Path_1477" data-name="Path 1477" d="M1481.247,1117.329l-.082-.057c-.406-.282-2.259-1.578-4.3-3.114-1.023-.768-2.094-1.6-3.054-2.385a27.964,27.964,0,0,1-2.384-2.147,24.943,24.943,0,0,0-2.633-2.3c-3.108-2.42-7.135-4.966-7.141-4.97a.421.421,0,0,0-.45.712l.08.051c.394.251,2.2,1.409,4.2,2.813,1,.7,2.046,1.466,2.988,2.208a23.057,23.057,0,0,1,2.35,2.063,30.053,30.053,0,0,0,2.656,2.378c3.158,2.574,7.3,5.434,7.3,5.437a.421.421,0,1,0,.479-.692Z" transform="translate(-966.355 -744.735)" fill="#f56d6d"/>
    <path id="Path_1478" data-name="Path 1478" d="M1413.414,1117.43l-.027-.009c-.136-.044-.778-.256-1.59-.568a23.694,23.694,0,0,1-2.608-1.16,14.877,14.877,0,0,1-2.31-1.6c-.309-.254-.563-.48-.739-.64-.088-.081-.156-.145-.2-.189l-.052-.05-.013-.012,0,0a.421.421,0,0,0-.59.6c.006.006.421.413,1.064.944a15.723,15.723,0,0,0,2.448,1.687,25.176,25.176,0,0,0,2.869,1.267c.86.325,1.493.528,1.5.53a.421.421,0,0,0,.257-.8Z" transform="translate(-922.262 -753.253)" fill="#f56d6d"/>
    <path id="Path_1479" data-name="Path 1479" d="M1384.256,998.515l32.714-53.87,72.48-32.91-32.714,53.87" transform="translate(-905.764 -594.287)" fill="#e00"/>
    <path id="Path_1480" data-name="Path 1480" d="M1416.768,1068.079s-5.331,18.427,7.6,20.74,29.713-8.614,32.167.245L1384,1121.949Z" transform="translate(-905.562 -717.722)" fill="#8f0000"/>
    <path id="Path_1481" data-name="Path 1481" d="M1195.3,904.087l5.775,22.458.187.043c.009,0,6.237,1.434,17.559,2.843a24.073,24.073,0,0,1,7.966,1.949,8.209,8.209,0,0,1,2.731,2.22,9.722,9.722,0,0,1,1.726,3.683.215.215,0,0,1,.008.05v.009h0a.133.133,0,0,1-.036.033,1.423,1.423,0,0,1-.333.148c-.286.1-.7.215-1.173.419a5.921,5.921,0,0,0-2.333,1.8,11.34,11.34,0,0,0-2.006,4.544,11.474,11.474,0,0,0-.333,2.645,7,7,0,0,0,1.077,3.9,7.575,7.575,0,0,0,3.609,2.819,9.241,9.241,0,0,0,2.158.586.316.316,0,1,0,.071-.627h0a8.984,8.984,0,0,1-3.228-1.155,6.079,6.079,0,0,1-3.052-5.519,10.844,10.844,0,0,1,.316-2.5,11.478,11.478,0,0,1,1.6-3.913,5.767,5.767,0,0,1,1.388-1.44,6.285,6.285,0,0,1,1.85-.867,3.652,3.652,0,0,0,.675-.265.842.842,0,0,0,.267-.235.644.644,0,0,0,.118-.375.843.843,0,0,0-.027-.206,10.357,10.357,0,0,0-1.842-3.918,9.749,9.749,0,0,0-4.734-3.146,32.963,32.963,0,0,0-6.382-1.259c-5.649-.7-10.026-1.412-12.989-1.944-1.481-.266-2.609-.488-3.367-.644-.378-.078-.664-.139-.855-.181l-.215-.047-.071-.016-.071.308.306-.079-5.727-22.272a.316.316,0,1,0-.612.157Z" transform="translate(-756.574 -587.938)"/>
    <path id="Path_1482" data-name="Path 1482" d="M2013.594,1452.721a17.562,17.562,0,0,0-.261,3.118,16.527,16.527,0,0,0,.284,3.12,12.023,12.023,0,0,0,.767,2.521,8.687,8.687,0,0,0,2.559,3.393,9.508,9.508,0,0,0,4.733,1.9,20.255,20.255,0,0,0,2.695.2,8.429,8.429,0,0,0,3.787-.743,5.231,5.231,0,0,0,1.885-1.572,8.943,8.943,0,0,0,1.446-3.574,41.866,41.866,0,0,0,.61-4.755l-1.677-.148c-.139,1.571-.281,2.957-.5,4.127a11.1,11.1,0,0,1-.627,2.259,4.916,4.916,0,0,1-.691,1.193,3.6,3.6,0,0,1-1.555,1.117,7.448,7.448,0,0,1-2.682.411,18.654,18.654,0,0,1-2.47-.186,8.049,8.049,0,0,1-3.585-1.305,6.547,6.547,0,0,1-1.652-1.66,8.913,8.913,0,0,1-1.316-3.13,14.535,14.535,0,0,1-.33-3.167,17.515,17.515,0,0,1,.117-2.022c.029-.249.058-.445.079-.577.011-.066.019-.116.025-.148l.007-.035v-.007h0l-1.652-.328Z" transform="translate(-1402.423 -1021.398)"/>
    <path id="Path_1483" data-name="Path 1483" d="M1920.156,1426.43l.285-.051-.285.05h0l.285-.051-.285.05a10.885,10.885,0,0,1,.123,1.7,10.519,10.519,0,0,1-.2,2.105,7.012,7.012,0,0,1-.535,1.623,4.57,4.57,0,0,1-1.684,1.933,4.994,4.994,0,0,1-1.4.6,7.594,7.594,0,0,1-1.94.23,14.742,14.742,0,0,1-3.636-.52l-.026-.007-.027-.005h0a5.331,5.331,0,0,1-1.178-.451,8.975,8.975,0,0,1-3.607-3.481c-1.194-1.985-2.172-4.981-2.173-9.528h-1.684a22.846,22.846,0,0,0,1.247,7.943,13.529,13.529,0,0,0,2.043,3.724,10.289,10.289,0,0,0,3.335,2.8,6.756,6.756,0,0,0,1.705.644l.156-.828-.209.816a16.417,16.417,0,0,0,4.054.573,8.063,8.063,0,0,0,3.866-.869,6.036,6.036,0,0,0,1.876-1.563,7.579,7.579,0,0,0,1.392-2.959,11.906,11.906,0,0,0,.313-2.78,12.406,12.406,0,0,0-.149-2Z" transform="translate(-1314.67 -996.058)"/>
    <path id="Path_1484" data-name="Path 1484" d="M1903.172,1416.5c1.572.291,3.13.61,4.688.95s3.11.707,4.658,1.111,3.09.844,4.621,1.378a23.574,23.574,0,0,1,2.288.921,9.733,9.733,0,0,1,1.139.625,4.965,4.965,0,0,1,.571.424,2.77,2.77,0,0,1,.56.636l-.863-.388c.168-.028.289-.041.431-.057s.272-.025.407-.034q.406-.026.813-.021a9.766,9.766,0,0,1,1.634.15,7.347,7.347,0,0,1,1.622.484,5.589,5.589,0,0,1,1.488.945l-.563-.216c1.49.016,2.936.1,4.4.225s2.913.305,4.363.553a36.436,36.436,0,0,1,4.321.98,19.727,19.727,0,0,1,4.179,1.722h0l-.767-.039c2.6-1.149,5.194-2.29,7.809-3.394s5.234-2.2,7.876-3.243q1.981-.784,3.979-1.534c1.334-.5,2.673-.982,4.045-1.414a16.4,16.4,0,0,1,2.133-.551,20.539,20.539,0,0,1,2.167-.243,14.55,14.55,0,0,1,2.194.053c.182.017.365.044.547.069s.364.064.545.108.361.087.541.142c.09.026.179.057.269.091s.173.067.281.118a.314.314,0,0,1-.218.587l-.033-.009c-.129-.036-.306-.073-.467-.1s-.332-.052-.5-.068c-.337-.035-.678-.048-1.019-.056a17.19,17.19,0,0,0-2.054.114c-.684.085-1.366.189-2.043.33a15.957,15.957,0,0,0-1.965.569c-1.32.455-2.635.97-3.943,1.5s-2.612,1.074-3.913,1.629q-3.9,1.664-7.786,3.383c-2.587,1.148-5.18,2.29-7.755,3.459l-.377.171-.39-.21h0a18.083,18.083,0,0,0-3.815-1.565,34.758,34.758,0,0,0-4.122-.935c-1.4-.239-2.811-.408-4.229-.535s-2.854-.2-4.251-.219l-.323,0-.24-.213a3.9,3.9,0,0,0-1.036-.654,5.657,5.657,0,0,0-1.247-.37,8.065,8.065,0,0,0-1.35-.123c-.229,0-.459,0-.687.018-.114.008-.228.016-.34.028s-.234.027-.313.041l-.581.1-.282-.485a1.2,1.2,0,0,0-.23-.247,3.368,3.368,0,0,0-.384-.283,8.253,8.253,0,0,0-.945-.516,21.982,21.982,0,0,0-2.122-.852c-1.461-.51-2.971-.94-4.489-1.338s-3.053-.757-4.592-1.095-3.087-.653-4.632-.939h0a.842.842,0,1,1,.307-1.656Z" transform="translate(-1314.664 -992.758)"/>
    <path id="Path_1485" data-name="Path 1485" d="M1136.113,1650.85l.186-.166-.187.165h0l.186-.166-.187.165s.016.018.047.057a15.923,15.923,0,0,1,2.307,5.114c1.01,3.354,1.962,8.6,1.962,16.436q0,.436,0,.883a.421.421,0,1,0,.842.007q0-.451,0-.891c0-8.5-1.11-14.018-2.232-17.423a14.322,14.322,0,0,0-2.3-4.743.421.421,0,1,0-.628.561Z" transform="translate(-709.769 -1177.268)"/>
    <path id="Path_1486" data-name="Path 1486" d="M990.8,1625.431l.011,0a26.708,26.708,0,0,1,9.995-2,20.674,20.674,0,0,1,6.168.9,45.974,45.974,0,0,0,12.523,2.319,11.5,11.5,0,0,0,2.017-.154,3.769,3.769,0,0,0,1.4-.5.3.3,0,0,0-.335-.5,3.212,3.212,0,0,1-1.175.407,10.906,10.906,0,0,1-1.909.144,45.429,45.429,0,0,1-12.343-2.291,21.28,21.28,0,0,0-6.348-.931,27.223,27.223,0,0,0-10.256,2.06.3.3,0,1,0,.251.549Z" transform="translate(-594.792 -1155.694)" fill="#e00"/>
    <path id="Path_1487" data-name="Path 1487" d="M978.86,1609.781h0a15.511,15.511,0,0,1,2.97-1.647,18.986,18.986,0,0,1,7.529-1.584,18.679,18.679,0,0,1,5.614.872c3.13.981,5.517,1.6,7.293,1.978a19.216,19.216,0,0,0,3.635.508,3.639,3.639,0,0,0,.4-.019,1.4,1.4,0,0,0,.3-.062.3.3,0,1,0-.2-.57.872.872,0,0,1-.168.032,3.076,3.076,0,0,1-.332.016,18.736,18.736,0,0,1-3.51-.5c-1.752-.371-4.122-.986-7.237-1.963a19.283,19.283,0,0,0-5.795-.9,19.591,19.591,0,0,0-7.859,1.673,15.8,15.8,0,0,0-3.009,1.684.3.3,0,1,0,.367.479Z" transform="translate(-585.319 -1142.37)" fill="#e00"/>
    <path id="Path_1488" data-name="Path 1488" d="M970.909,1890.065a21.358,21.358,0,0,0-2.579,2.612,13.34,13.34,0,0,0-3.134,6.161.316.316,0,0,0,.624.1,12.74,12.74,0,0,1,2.995-5.852,22.1,22.1,0,0,1,1.735-1.848c.232-.22.422-.391.554-.506.066-.058.118-.1.153-.131l.039-.033.012-.01a.316.316,0,1,0-.4-.489Z" transform="translate(-574.911 -1366.627)" fill="#be0000"/>
    <path id="Path_1489" data-name="Path 1489" d="M944.072,1809.645h.007c.038,0,.234-.02.543-.02a9.417,9.417,0,0,1,3.806.8l.131-.287.051-.312a5.951,5.951,0,0,0-.875-.062,4.773,4.773,0,0,0-1.124.123,2.34,2.34,0,0,0-1.094.565.316.316,0,0,0,.442.451,1.719,1.719,0,0,1,.8-.4,4.155,4.155,0,0,1,.973-.1c.223,0,.42.014.559.027.069.007.125.014.161.018l.042.006h.012a.316.316,0,0,0,.182-.6,10.035,10.035,0,0,0-4.069-.852c-.378,0-.6.023-.614.024a.316.316,0,1,0,.065.628Z" transform="translate(-557.962 -1302.677)" fill="#be0000"/>
    <path id="Path_1490" data-name="Path 1490" d="M1141.143,1813.132c-.009,0-.236-.024-.614-.024a10.028,10.028,0,0,0-4.068.852.316.316,0,0,0,.183.6h0a5.429,5.429,0,0,1,.772-.053,4.172,4.172,0,0,1,.973.1,1.724,1.724,0,0,1,.8.4.316.316,0,1,0,.442-.451,2.334,2.334,0,0,0-1.093-.565,4.776,4.776,0,0,0-1.124-.123,5.956,5.956,0,0,0-.876.062l.051.312.131.287a9.411,9.411,0,0,1,3.806-.8c.176,0,.316.005.411.011l.107.007.026,0h.006a.315.315,0,0,0,.065-.628Z" transform="translate(-709.982 -1305.926)" fill="#be0000"/>
    <path id="Path_1491" data-name="Path 1491" d="M972.87,1739.576l.009,0a26.977,26.977,0,0,1,8.075-1.344,17.436,17.436,0,0,1,3.277.293,39.438,39.438,0,0,0,7.483.954,27.516,27.516,0,0,0,5.22-.569,24.5,24.5,0,0,1,4.5-.415,19.5,19.5,0,0,1,3.7.324,8.111,8.111,0,0,1,1.244.338,2.094,2.094,0,0,1,.662.356.316.316,0,0,0,.433-.46,2.647,2.647,0,0,0-.873-.488,10.578,10.578,0,0,0-2.172-.505,21.688,21.688,0,0,0-2.99-.2,25.147,25.147,0,0,0-4.612.425,26.866,26.866,0,0,1-5.1.559,38.822,38.822,0,0,1-7.364-.942,18.053,18.053,0,0,0-3.4-.3,27.547,27.547,0,0,0-8.3,1.385.316.316,0,0,0,.213.594Z" transform="translate(-580.639 -1246.309)" fill="#be0000"/>
    <path id="Path_1492" data-name="Path 1492" d="M992.184,1720.692l.028-.006a31.886,31.886,0,0,1,6.223-.587,28.5,28.5,0,0,1,5.929.593,19.313,19.313,0,0,0,4.1.458,21.9,21.9,0,0,0,3.183-.258c.958-.137,1.841-.287,2.741-.35.343-.025.7-.036,1.054-.036a26.4,26.4,0,0,1,3.4.252c.469.063.861.126,1.135.173.137.023.245.043.318.057l.083.016.027.005a.316.316,0,1,0,.124-.619,29.812,29.812,0,0,0-5.088-.515c-.37,0-.738.011-1.1.037-.942.067-1.839.221-2.786.355a21.324,21.324,0,0,1-3.094.251,18.7,18.7,0,0,1-3.966-.444,29.1,29.1,0,0,0-6.062-.607,32.1,32.1,0,0,0-6.39.608.316.316,0,1,0,.139.616Z" transform="translate(-595.917 -1231.996)" fill="#be0000"/>
  </g>
</svg>
